<?xml version="1.0" standalone="no"?><!DOCTYPE svg PUBLIC "-//W3C//DTD SVG 1.1//EN" "http://www.w3.org/Graphics/SVG/1.1/DTD/svg11.dtd"><svg class="icon" width="200px" height="183.35px" viewBox="0 0 1117 1024" version="1.1" xmlns="http://www.w3.org/2000/svg"><path fill="#000000" d="M1115.666406 745.083399a282.774948 282.774948 0 0 1-15.805274 92.9722h-93.901923a205.793966 205.793966 0 0 0 22.313328-92.9722c0-134.809691-130.625942-244.052026-284.494933-244.052027V419.680697a139.458301 139.458301 0 0 0 0-278.916602V47.791895a231.73321 231.73321 0 0 1 157.123019 402.709086A325.402702 325.402702 0 0 1 1115.666406 745.083399z m-278.916602 116.21525a383.370869 383.370869 0 0 1-6.972915 69.729151H790.263704a46.4861 46.4861 0 0 1 0 92.9722H46.4861a46.4861 46.4861 0 0 1 0-92.9722H6.972915A383.370869 383.370869 0 0 1 0 861.298649a394.806449 394.806449 0 0 1 248.700636-361.011054 278.916601 278.916601 0 1 1 339.348532 0A394.806449 394.806449 0 0 1 836.749804 861.298649zM604.319303 280.222396a185.944401 185.944401 0 1 0-185.944401 185.944401 185.944401 185.944401 0 0 0 185.944401-185.944401z m-185.944401 278.916602a316.105482 316.105482 0 0 0-324.937841 302.159651 267.24859 267.24859 0 0 0 9.762082 69.729151h630.351519a267.24859 267.24859 0 0 0 9.762081-69.729151A316.105482 316.105482 0 0 0 418.374902 559.138998z"  /></svg>